<svg viewBox="0 0 886.3333740234375 400" xmlns="http://www.w3.org/2000/svg"><g><g><g><g><g><line x1="51.5625" y1="377" x2="46.5625" y2="377" style="visibility: inherit;" fill="rgb(0, 0, 0)" stroke="rgb(204, 204, 204)" stroke-width="1px"></line><line x1="51.5625" y1="335.1111111111111" x2="46.5625" y2="335.1111111111111" style="visibility: inherit;" fill="rgb(0, 0, 0)" stroke="rgb(204, 204, 204)" stroke-width="1px"></line><line x1="51.5625" y1="293.2222222222222" x2="46.5625" y2="293.2222222222222" style="visibility: inherit;" fill="rgb(0, 0, 0)" stroke="rgb(204, 204, 204)" stroke-width="1px"></line><line x1="51.5625" y1="251.3333333333333" x2="46.5625" y2="251.3333333333333" style="visibility: inherit;" fill="rgb(0, 0, 0)" stroke="rgb(204, 204, 204)" stroke-width="1px"></line><line x1="51.5625" y1="209.44444444444437" x2="46.5625" y2="209.44444444444437" style="visibility: inherit;" fill="rgb(0, 0, 0)" stroke="rgb(204, 204, 204)" stroke-width="1px"></line><line x1="51.5625" y1="167.55555555555543" x2="46.5625" y2="167.55555555555543" style="visibility: inherit;" fill="rgb(0, 0, 0)" stroke="rgb(204, 204, 204)" stroke-width="1px"></line><line x1="51.5625" y1="125.66666666666677" x2="46.5625" y2="125.66666666666677" style="visibility: inherit;" fill="rgb(0, 0, 0)" stroke="rgb(204, 204, 204)" stroke-width="1px"></line><line x1="51.5625" y1="83.77777777777781" x2="46.5625" y2="83.77777777777781" style="visibility: inherit;" fill="rgb(0, 0, 0)" stroke="rgb(204, 204, 204)" stroke-width="1px"></line><line x1="51.5625" y1="41.88888888888891" x2="46.5625" y2="41.88888888888891" style="visibility: inherit;" fill="rgb(0, 0, 0)" stroke="rgb(204, 204, 204)" stroke-width="1px"></line><line x1="51.5625" y1="0" x2="46.5625" y2="0" style="visibility: inherit;" fill="rgb(0, 0, 0)" stroke="rgb(204, 204, 204)" stroke-width="1px"></line></g><g transform="translate(41.5625, 0)"><text x="0" y="377" dx="0em" dy="0.3em" style="text-anchor: end; visibility: hidden; font-family: Roboto, sans-serif; font-size: 12px; font-weight: 200;" fill="rgb(33, 33, 33)" stroke="none" stroke-width="1px">0.82</text><text x="0" y="335.1111111111111" dx="0em" dy="0.3em" style="text-anchor: end; visibility: inherit; font-family: Roboto, sans-serif; font-size: 12px; font-weight: 200;" fill="rgb(33, 33, 33)" stroke="none" stroke-width="1px">0.84</text><text x="0" y="293.2222222222222" dx="0em" dy="0.3em" style="text-anchor: end; visibility: inherit; font-family: Roboto, sans-serif; font-size: 12px; font-weight: 200;" fill="rgb(33, 33, 33)" stroke="none" stroke-width="1px">0.86</text><text x="0" y="251.3333333333333" dx="0em" dy="0.3em" style="text-anchor: end; visibility: inherit; font-family: Roboto, sans-serif; font-size: 12px; font-weight: 200;" fill="rgb(33, 33, 33)" stroke="none" stroke-width="1px">0.88</text><text x="0" y="209.44444444444437" dx="0em" dy="0.3em" style="text-anchor: end; visibility: inherit; font-family: Roboto, sans-serif; font-size: 12px; font-weight: 200;" fill="rgb(33, 33, 33)" stroke="none" stroke-width="1px">0.9</text><text x="0" y="167.55555555555543" dx="0em" dy="0.3em" style="text-anchor: end; visibility: inherit; font-family: Roboto, sans-serif; font-size: 12px; font-weight: 200;" fill="rgb(33, 33, 33)" stroke="none" stroke-width="1px">0.92</text><text x="0" y="125.66666666666677" dx="0em" dy="0.3em" style="text-anchor: end; visibility: inherit; font-family: Roboto, sans-serif; font-size: 12px; font-weight: 200;" fill="rgb(33, 33, 33)" stroke="none" stroke-width="1px">0.94</text><text x="0" y="83.77777777777781" dx="0em" dy="0.3em" style="text-anchor: end; visibility: inherit; font-family: Roboto, sans-serif; font-size: 12px; font-weight: 200;" fill="rgb(33, 33, 33)" stroke="none" stroke-width="1px">0.96</text><text x="0" y="41.88888888888891" dx="0em" dy="0.3em" style="text-anchor: end; visibility: inherit; font-family: Roboto, sans-serif; font-size: 12px; font-weight: 200;" fill="rgb(33, 33, 33)" stroke="none" stroke-width="1px">0.98</text><text x="0" y="0" dx="0em" dy="0.3em" style="text-anchor: end; visibility: hidden; font-family: Roboto, sans-serif; font-size: 12px; font-weight: 200;" fill="rgb(33, 33, 33)" stroke="none" stroke-width="1px">1</text></g><line x1="51.5625" y1="0" x2="51.5625" y2="377" fill="rgb(0, 0, 0)" stroke="rgb(204, 204, 204)" stroke-width="1px"></line></g></g><g transform="translate(51, 0)" clip-path="url(#clip_0)"><clipPath id="clip_0"><rect width="834" height="377"></rect></clipPath><g><g><g><line x1="0" y1="0" x2="0" y2="377" fill="rgb(0, 0, 0)" stroke="rgb(66, 66, 66)" stroke-width="1px" opacity="0.25"></line><line x1="69.56420833333333" y1="0" x2="69.56420833333333" y2="377" fill="rgb(0, 0, 0)" stroke="rgb(66, 66, 66)" stroke-width="1px" opacity="0.25"></line><line x1="139.12841666666665" y1="0" x2="139.12841666666665" y2="377" fill="rgb(0, 0, 0)" stroke="rgb(66, 66, 66)" stroke-width="1px" opacity="0.25"></line><line x1="208.692625" y1="0" x2="208.692625" y2="377" fill="rgb(0, 0, 0)" stroke="rgb(66, 66, 66)" stroke-width="1px" opacity="0.25"></line><line x1="278.2568333333333" y1="0" x2="278.2568333333333" y2="377" fill="rgb(0, 0, 0)" stroke="rgb(66, 66, 66)" stroke-width="1px" opacity="0.25"></line><line x1="347.82104166666664" y1="0" x2="347.82104166666664" y2="377" fill="rgb(0, 0, 0)" stroke="rgb(66, 66, 66)" stroke-width="1px" opacity="0.25"></line><line x1="417.38525" y1="0" x2="417.38525" y2="377" fill="rgb(0, 0, 0)" stroke="rgb(66, 66, 66)" stroke-width="1px" opacity="0.25"></line><line x1="486.9494583333333" y1="0" x2="486.9494583333333" y2="377" fill="rgb(0, 0, 0)" stroke="rgb(66, 66, 66)" stroke-width="1px" opacity="0.25"></line><line x1="556.5136666666666" y1="0" x2="556.5136666666666" y2="377" fill="rgb(0, 0, 0)" stroke="rgb(66, 66, 66)" stroke-width="1px" opacity="0.25"></line><line x1="626.077875" y1="0" x2="626.077875" y2="377" fill="rgb(0, 0, 0)" stroke="rgb(66, 66, 66)" stroke-width="1px" opacity="0.25"></line><line x1="695.6420833333333" y1="0" x2="695.6420833333333" y2="377" fill="rgb(0, 0, 0)" stroke="rgb(66, 66, 66)" stroke-width="1px" opacity="0.25"></line><line x1="765.2062916666666" y1="0" x2="765.2062916666666" y2="377" fill="rgb(0, 0, 0)" stroke="rgb(66, 66, 66)" stroke-width="1px" opacity="0.25"></line><line x1="834.7705" y1="0" x2="834.7705" y2="377" fill="rgb(0, 0, 0)" stroke="rgb(66, 66, 66)" stroke-width="1px" opacity="0.25"></line></g><g><line x1="0" y1="377" x2="834.7705" y2="377" fill="rgb(0, 0, 0)" stroke="rgb(66, 66, 66)" stroke-width="1px" opacity="0.25"></line><line x1="0" y1="335.1111111111111" x2="834.7705" y2="335.1111111111111" fill="rgb(0, 0, 0)" stroke="rgb(66, 66, 66)" stroke-width="1px" opacity="0.25"></line><line x1="0" y1="293.2222222222222" x2="834.7705" y2="293.2222222222222" fill="rgb(0, 0, 0)" stroke="rgb(66, 66, 66)" stroke-width="1px" opacity="0.25"></line><line x1="0" y1="251.3333333333333" x2="834.7705" y2="251.3333333333333" fill="rgb(0, 0, 0)" stroke="rgb(66, 66, 66)" stroke-width="1px" opacity="0.25"></line><line x1="0" y1="209.44444444444437" x2="834.7705" y2="209.44444444444437" fill="rgb(0, 0, 0)" stroke="rgb(66, 66, 66)" stroke-width="1px" opacity="0.25"></line><line x1="0" y1="167.55555555555543" x2="834.7705" y2="167.55555555555543" fill="rgb(0, 0, 0)" stroke="rgb(66, 66, 66)" stroke-width="1px" opacity="0.25"></line><line x1="0" y1="125.66666666666677" x2="834.7705" y2="125.66666666666677" fill="rgb(0, 0, 0)" stroke="rgb(66, 66, 66)" stroke-width="1px" opacity="0.25"></line><line x1="0" y1="83.77777777777781" x2="834.7705" y2="83.77777777777781" fill="rgb(0, 0, 0)" stroke="rgb(66, 66, 66)" stroke-width="1px" opacity="0.25"></line><line x1="0" y1="41.88888888888891" x2="834.7705" y2="41.88888888888891" fill="rgb(0, 0, 0)" stroke="rgb(66, 66, 66)" stroke-width="1px" opacity="0.25"></line><line x1="0" y1="0" x2="834.7705" y2="0" fill="rgb(0, 0, 0)" stroke="rgb(66, 66, 66)" stroke-width="1px" opacity="0.25"></line></g></g></g><g><g><line x1="0" y1="2094.444444444444" x2="834.7705" y2="2094.444444444444" fill="rgb(0, 0, 0)" stroke="rgb(153, 153, 153)" stroke-width="1.5px"></line></g></g><g><g><line x1="69.56420833333333" y1="0" x2="69.56420833333333" y2="377" fill="rgb(0, 0, 0)" stroke="rgb(153, 153, 153)" stroke-width="1.5px"></line></g></g><g><g><g><g><g><path stroke="rgb(255, 112, 67)" stroke-width="2px" d="M81.67394571999999,409.49356930573816L82.38628321333333,371.9618411388854L83.09862070666667,363.2529946740164L83.47705,344.91883270428775L84.52329569333332,312.79414046024124L85.23563318666666,309.5251142872718L85.94797068,279.1497372625524L86.66030817333332,343.275832202987L86.95526041666666,322.3381360410768L88.08498316,321.575125724689L88.79732065333333,352.6006736072029L89.50965814666667,379.45122434612506L90.43347083333333,384.66182697696945L91.64667062666666,335.9368161544495L92.35900812,294.8650197931834L93.07134561333334,270.9863041179105L93.78368310666666,266.4226964484026L93.91168125,257.1158685695569L95.20835809333333,228.82534069379943L95.92069558666667,239.15336345488913L96.63303308,243.17982963611374L97.34537057333333,239.42609360134296L97.38989166666667,247.63787310618162L98.77004555999999,264.0155281666818L99.48238305333334,263.4492167431616L100.19472054666667,263.6809558399171L100.86810208333333,298.46378313118237L101.61939553333333,320.74053726994896L102.33173302666665,320.0447879896488L103.04407051999999,318.04669311238L103.75640801333333,307.77052453210774L104.3463125,361.5353691181568L105.181083,444.6305426213884L115.86614540000001,387.3537802378132L116.57848289333332,355.2919748478454L117.29082038666667,351.4564749226376L118.00315788,361.33541110456866L118.25915416666666,376.79937681421984L119.42783286666668,380.21222495843006L120.14017035999998,352.80205256901155L120.85250785333334,307.45949061131813L121.56484534666666,284.38928471252063L121.73736458333333,269.38306488925514L122.98952033333333,251.48661205237505L123.70185782666665,248.1731156328803L124.41419532,233.90484815877147L125.12653281333333,232.66494253146053L125.21557499999999,209.65171169245073L126.5512078,203.67669795686328L127.26354529333332,177.4057477350031L127.97588278666667,211.1746071983591L128.68822028,205.36888296345333L128.69378541666666,200.7498901753239L130.11289526666664,187.66801482176498L130.82523276,187.2868637813817L131.53757025333334,206.28701997256888L132.1719958333333,215.89061323944446L132.96224524,210.26467044914725L133.67458273333332,216.1229312408696L134.38692022666666,213.7708276971059L135.09925772,204.1028427700382L135.65020625,224.35977029133014L136.52393270666667,214.94557992462998L137.23627019999998,303.08552405371677L137.94860769333334,296.60502779195593L138.66094518666668,289.14831226260344L139.12841666666665,245.29868271333189L140.08562017333333,240.82513056778757L140.79795766666666,233.20050433078683L141.51029516,220.74169868517686L142.2226326533333,207.18798136049003L142.60662708333334,200.16440985530323L143.64730764,210.71936566184667L144.35964513333332,224.3396700779374L145.07198262666665,233.80517758000155L145.78432012,224.94633588091438L146.0848375,303.2378156271492L147.20899510666666,335.68514361403385L147.9213326,332.06087339665225L148.63367009333334,294.3315412597623L149.34600758666664,282.0300905924274L149.56304791666668,269.34354602818274L150.77068257333332,284.82221448052985L151.48302006666665,265.0179817752379L152.19535756,247.55593245718157L152.90769505333333,207.76682662471657L153.0412583333333,186.9960823230209L154.33237003999997,187.01437695032894L155.04470753333334,172.28366833958566L155.75704502666667,178.03867450549603L156.46938251999998,180.79519560631581L156.51946875,167.49649155046413L157.89405750666666,181.14217010138762L158.606395,227.06281591462144L159.31873249333333,227.1376231910935L159.99767916666667,236.95897453706377L160.74340748,235.33288504924224L161.4557449733333,242.38060603078964L162.16808246666668,230.6017061213333L162.88041995999998,273.291313428632L163.47588958333333,270.16336116264074L164.30509494666666,265.6385058260634L165.01743244,256.0951043538048L165.72976993333333,233.35118513777704L166.44210742666664,212.0203625046836L166.9541,207.28791052229838L167.86678241333334,193.47310166553726L168.57911990666665,186.01398582439552L169.2914574,192.98693901600308L170.00379489333332,202.32811278482913L170.43231041666667,208.0399943848692L171.42846988,209.0143130295307L172.14080737333333,218.02767845403147L172.85314486666667,220.55395521134372L173.56548235999998,219.25775221873917L173.91052083333332,200.47497946144594L174.99015734666665,202.04359244631942L175.70249483999999,194.76348304987488L176.41483233333335,194.58400090023437L177.12716982666666,186.63588077938476L177.38873124999998,209.040078543771L178.55184481333333,224.07906391039342L179.26418230666667,216.38534539587138L179.9765198,210.29997124015443L180.6888572933333,215.64331185550986L180.86694166666666,209.20461189823848L182.11353228,221.01934920657436L182.82586977333332,238.12939081581897L183.53820726666666,224.25712462196833L184.25054476,213.2351977555869L184.34515208333332,209.03678377233663L185.67521974666664,186.95686053409148L186.38755724,191.26000186086074L187.09989473333331,178.39471726953806L187.81223222666665,172.30305804215297L187.8233625,192.45142785497015L189.23690721333332,186.1924753493607L189.94924470666666,171.33391725924886L190.6615822,163.44585169433873L191.30157291666666,189.11585328656602L192.08625718666664,185.80551451305234L192.79859467999998,168.38385741506016L193.51093217333334,198.29784559394625L194.22326966666665,234.23182120833405L194.77978333333334,199.63187870101407L195.64794465333333,204.10945136373775L196.36028214666666,178.36293271100553L197.07261964,176.832443452658L197.78495713333334,160.94565208534078L198.25799375,169.2963331656781L199.20963211999998,161.75807950677762L199.92196961333332,143.40165354431988L200.63430710666665,157.47807028030468L201.3466446,171.9528454708449L201.73620416666665,148.61332717768698L202.77131958666666,134.25836530818702L203.48365708,153.16283300832336L204.1959945733333,174.08342368133162L204.90833206666665,199.17206793302503L205.2144145833333,196.725106681893L206.33300705333332,192.49976729281704L207.04534454666666,162.97625581287852L207.75768204,183.43606961779793L208.47001953333333,176.70115813853545L208.692625,167.47525930831694L209.89469452,144.49157290793468L210.6070320133333,127.76628507514228L211.31936950666667,124.60425496000171L212.03170699999998,165.95285396496575L212.17083541666665,152.32496567969076L213.45638198666668,147.41089095462553L214.16871948,149.01985698376816L214.88105697333333,158.35389463079795L215.59339446666664,162.84060210079647L215.64904583333336,171.05270399641086L217.01806945333334,150.08310993124067L217.73040694666665,173.94307991041237L218.44274444,164.54568681216261L219.12725625,171.5799699032632L219.86741942666666,168.15129246777212L220.57975691999997,156.88756636728118L221.29209441333333,149.13568040776477L222.00443190666667,135.45168600263017L222.60546666666664,163.45829359329682L223.42910689333334,160.05416532201912L224.14144438666665,163.82064062314413L224.85378187999999,159.25144233860996L225.56611937333335,153.40829861153955L226.0836770833333,147.7285253171126L226.99079436,146.3059256331698L227.7031318533333,135.89912088389764L228.41546934666667,123.73518834942215L229.12780684,115.87905195256026L229.5618875,111.12173174827835L230.55248182666668,104.24448659030074L231.26481932,100.09994506682796L231.97715681333332,104.72061672090625L232.68949430666663,104.55491756211545L233.04009791666667,126.44331465176434L234.11416929333333,119.18504889656252L234.82650678666664,131.14746008501163L235.53884428,126.40434595983832L236.25118177333334,148.39808531745888L236.51830833333332,143.7674318661826L237.67585675999996,133.72123742201558L238.38819425333332,193.79903763943244L239.10053174666666,169.55369371259263L239.81286923999997,155.7757994963517L239.99651874999998,148.79286856691945L241.23754422666667,145.0817709590284L241.94988171999998,170.21725777918377L242.66221921333334,165.13299589992826L243.37455670666665,164.78949373347328L243.47472916666666,166.58434263606944L244.7992316933333,169.30707948927295L245.51156918666666,174.63580706416533L246.22390668,194.7754370127121L246.9362441733333,183.21826277692475L246.95293958333332,168.82057830611038L248.36091916,150.54795920070637L249.07325665333332,145.91961869106544L249.78559414666663,141.63666361280877L250.43114999999997,141.0072946535302L251.21026913333333,133.5245317305739L251.92260662666664,136.3128852100296L252.63494412,132.30179860004597L253.34728161333334,120.24984639908968L253.90936041666663,132.8255691558962L254.7719566,120.34029842712309L255.48429409333335,130.02714982566718L256.1966315866666,137.6935843191047L256.90896907999996,123.37518376432013L257.3875708333333,134.21243633807276L258.33364406666664,128.71110268323412L259.04598156,133.55053839151864L259.75831905333337,119.29925984957637L260.47065654666665,116.12136793678971L260.86578125,127.5529199432933L261.8953315333333,158.42068586506605L262.60766902666666,158.0624040514865L263.32000652,155.0697616751691L264.03234401333333,151.96675336165316L264.3439916666666,142.34527693022898L265.457019,188.92641708781733L266.16935649333334,179.24153101142076L266.8816939866666,178.42837187339384L267.59403148,183.41190060326034L267.82220208333337,164.45028223627082L269.01870646666663,154.92827120838638L269.73104396,168.2883549765722L270.4433814533333,176.89187307796914L271.15571894666664,190.54121301213266L271.3004125,189.7377528121198L272.5803939333333,189.41915257157652L273.29273142666665,179.53933603695333L274.00506892,185.07893444370163L274.7174064133333,167.4351696494858L274.7786229166667,174.0569738417601L276.1420814,206.2343997488293L276.85441889333333,186.3801807304442L277.56675638666667,164.84989162583477L278.2568333333333,156.40200982549462L278.9914313733333,160.2594658919772L279.7037688666667,135.48825952091426L280.41610636,131.54236204803004L281.1284438533333,112.07106842066763L281.73504375,105.01470700738123L282.55311883999997,115.65650802549165L283.2654563333333,103.19583082725609L283.9777938266667,114.17541931660496L284.69013132,96.68536647939429L285.2132541666667,85.04465417455098L286.11480630666665,90.6232362307123L286.8271438,136.5304427473283L287.5394812933333,158.64739940054923L288.25181878666666,135.25468351028738L288.6914645833333,138.32994320194507L289.67649377333333,132.4596283263888L290.38883126666667,145.30932966696318L291.10116875999995,137.6898057186649L291.81350625333334,119.66578177496318L292.169675,127.97288376209612L293.23818123999996,110.2283229474636L293.95051873333335,108.56846886821779L294.66285622666663,111.2423713651437L295.37519371999997,101.5782959885753L295.64788541666667,104.58200034895015L296.79986870666664,93.63535091281335L297.5122062,84.71859428167664L298.2245436933333,95.97576143123871L298.93688118666665,81.24031861736448L299.12609583333335,116.5153958265924L300.3615561733333,127.43144718866697L301.07389366666666,125.8318627301848L301.78623116,128.90752732241285L302.49856865333334,123.4884679468032L302.60430625,152.97218462217057L303.92324364,158.74465304518083L304.63558113333335,185.76453522798417L305.3479186266666,168.84567711383386L306.06025612,153.59735904659976L306.0825166666666,147.89859046264982L307.48493110666664,132.34220441921565L308.1972686,138.8018577322096L308.9096060933333,128.05362438712407L309.56072708333335,123.81895638023069L310.33428108,111.84375953979458L311.0466185733333,99.88898664999805L311.75895606666666,90.84784629093025L312.47129356,99.93212449791817L313.0389375,88.41742996118805L313.89596854666667,89.96000214630341L314.60830604,84.90747969730458L315.3206435333333,82.57273155972238L316.0329810266667,81.54220993641518L316.51714791666666,81.47962445431578L317.4576560133333,77.34825076520711L318.1699935066667,76.86705968875143L318.882331,101.43533899352124L319.5946684933333,146.8934777727593L319.99535833333334,142.52043366303843L321.01934348,150.0241477002572L321.7316809733333,159.42900357529913L322.44401846666665,159.39764795563775L323.15635596,164.40222579244715L323.47356874999997,188.51127242758957L324.58103094666666,186.95277527491885L325.29336844,296.4132459037321L326.00570593333333,280.88880921613077L326.71804342666667,257.04244576538946L326.95177916666665,237.485926823556L328.14271841333334,252.30479657427864L328.8550559066667,258.20995562379255L329.56739339999996,271.83598040932475L330.27973089333335,242.4250433063998L330.4299895833333,201.17621126430558L331.70440587999997,186.1078145710957L332.4167433733333,174.03624302197807L333.12908086666664,148.0670375913646L333.84141836,134.94788723981065L333.9082,136.08585099728737L335.26609334666665,128.15148791746128L335.97843084,113.62813757144845L336.6907683333333,102.87206018255348L337.38641041666665,97.61028826555005L338.11544332,86.55164712678588L338.82778081333333,81.50225503071927L339.5401183066666,76.8738793084484L340.2524558,70.08351599490425L340.86462083333333,86.49663334695083L341.6771307866666,117.29954516486684L342.38946828,104.41820396490448L343.10180577333335,99.166351437866L343.81414326666663,95.75144884800388L344.34283124999996,85.24127704349485L345.2388182533333,89.02519367852521L345.95115574666664,76.4316843610153L346.66349324,96.33589769426358L347.3758307333333,89.32484032569668L347.82104166666664,81.34430432336487L348.80050572,82.06687072385648L349.5128432133333,97.40734797700179L350.22518070666666,105.53895176207415L350.9375182,104.82928094021696L351.29925208333333,115.08168714854851L352.3621931866667,181.49290254005942L353.07453068,158.99329127377945L353.7868681733333,154.38735887747242L354.4992056666667,130.20449372318913L354.77746249999996,117.20833361422038L355.9238806533333,154.47904441094002L356.63621814666664,139.74200266098094L357.34855564,161.54994707858728L358.0608931333333,158.4067472118142L358.25567291666664,145.74631142870916L359.48556812,127.63027258309695L360.1979056133333,115.96549991322446L360.91024310666666,116.83544126893557L361.6225806,116.8824731794244L361.7338833333333,117.4194417077304L363.04725558666667,114.34717187439918L363.75959307999995,146.03566384293552L364.47193057333334,134.52430999166467L365.1842680666667,126.1344646149392L365.21209375,121.90888725430518L366.60894305333335,109.99687800929173L367.3212805466667,110.81385178822465L368.03361803999996,100.54124296656467L368.69030416666664,87.54359381939712L369.4582930266667,94.44669388607993L370.17063052,103.17398060018492L370.8829680133333,97.32775311216983L371.59530550666665,93.84936921703303L372.1685145833333,83.90849378307121L373.0199804933333,75.2461384508409L373.73231798666666,70.62586932642694L374.44465548,64.42616923235408L375.15699297333333,57.53912005989479L375.646725,54.20420562176192L376.58166796,82.8354632143125L377.29400545333334,83.47183035042009L378.0063429466666,76.35236171008417L378.71868044,94.72642196320574L379.12493541666663,125.69591309262147L380.14335542666663,113.69873791154343L380.85569291999997,113.25015230998827L381.56803041333336,168.89446237043472L382.28036790666664,171.88008646320364L382.6031458333333,154.54454090394984L383.7050428933333,147.60523424048782L384.41738038666665,130.4459561649129L385.12971788,122.63424364314882L385.8420553733333,105.71083427456757L386.08135625,101.35372799212135L387.26673036,91.53690625145356L387.9790678533333,109.74059015223203L388.69140534666667,95.64276551019871L389.40374284,82.02506585530831L389.5595666666667,72.42170533291609L390.8284178266666,111.77995498607198L391.54075532,101.86803683215032L392.2530928133333,90.39809581186118L392.96543030666663,81.6168800037289L393.0377770833333,97.93437388264033L394.3901052933333,106.26787491153434L395.10244278666664,98.76959700235179L395.81478028,91.90747448819086L396.5159875,89.17309348453561L397.23945526666665,84.45958777726572L397.95179276,117.18536848840462L398.6641302533333,149.05571538859198L399.37646774666666,145.31990442022087L399.9941979166667,146.85958397609016L400.80114273333334,130.17098010999027L401.5134802266667,124.03562711392757L402.22581771999995,110.69959109449874L402.9381552133333,103.07086765222542L403.4724083333333,92.07569955399636L404.36283019999996,85.36133002153072L405.0751676933333,80.01596440706903L405.7875051866667,73.41011881540268L406.49984268,64.1845310474703L406.95061875,87.28378693662992L407.9245176666667,89.61317142482473L408.63685516,91.94751302101734L409.3491926533333,99.3842559759184L410.06153014666666,117.08272223077414L410.4288291666666,118.19760595889194L411.4862051333333,110.58528642836151L412.19854262666667,105.41272654981033L412.91088012,95.22853263977038L413.62321761333334,82.16952770859092L413.90703958333336,74.9180077879579L415.04789259999995,125.45934233519036L415.76023009333335,136.08171448058732L416.4725675866666,136.52046285349454L417.18490507999996,123.91820759004553L417.38525,116.16545428607996L418.60958006666664,122.48139145039436L419.32191756,142.1709650581811L420.03425505333337,140.02985107495135L420.7465925466666,140.426428021128L420.8634604166666,161.16279171555223L422.1712675333333,164.2001706800143L422.8836050266666,159.3988789615993L423.59594252,161.19919281228417L424.30828001333333,144.98293277266464L424.3416708333333,146.93203102835022L425.732955,129.7919949504713L426.44529249333334,126.4519779523784L427.1576299866666,110.10189179323223L427.8198812499999,111.97880605274247L428.58230497333335,103.5784225338738L429.29464246666663,102.95901777430844L430.00697996,143.00724304869004L430.7193174533333,156.2086777004492L431.2980916666667,186.20893684948533L432.14399244000003,168.5740784912629L432.85632993333326,169.57362243232228L433.56866742666665,201.5754021940481L434.28100492,187.2006391114468L434.77630208333335,166.83936567576305L435.70567990666666,152.836304318445L436.4180174,132.05610231821242L437.1303548933333,163.54983621390036L437.84269238666667,199.4873559640276L438.2545125,208.85612688407096L439.2673673733333,188.67223391934954L439.9797048666667,172.92804044409283L440.69204235999996,146.94209185826946L441.4043798533333,131.84564701586086L441.73272291666666,111.64684961662086L442.82905483999997,94.51742069734641L443.5413923333333,115.99906969767608L444.2537298266667,105.00445929310929L444.9660673199999,89.0456091944327L445.2109333333333,84.46669170477159L446.3907423066667,93.46975709942024L447.10307979999993,94.21462308111268L447.8154172933333,93.70332790158295L448.52775478666666,112.72654236227062L448.68914374999997,99.08638363561947L449.95242977333334,86.87239328362377L450.6647672666667,110.22645539880654L451.37710475999995,108.05391200148287L452.08944225333335,128.54392000999408L452.1673541666666,127.82940462896849L453.51411723999996,114.7025249461829L454.22645473333336,113.10596108589867L454.93879222666664,115.5440840590095L455.6455645833333,102.78685918638962L456.36346721333337,89.21015645318066L457.0758047066666,82.19679689047972L457.7881422,75.59925079922255L458.5004796933334,92.63529200052237L459.123775,111.34941401736832L459.92515468,104.47535579366495L460.6374921733333,106.27508171132203L461.3498296666666,96.89151629270228L462.06216716,100.03834373769655L462.60198541666665,92.63777871828992L463.4868421466666,92.07854120019044L464.19917964,123.7645616620486L464.9115171333333,124.96660163242899L465.6238546266666,161.85717461136562L466.08019583333333,161.2725622421504L467.0485296133333,164.1895607413197L467.76086710666664,138.8931973692033L468.47320460000003,130.08697565698063L469.1855420933333,133.0518698976624L469.55840624999996,129.67863959157168L470.61021708000004,127.46581983917567L471.32255457333326,125.18570703114302L472.03489206666666,118.99056534932721L472.74722956,111.86119484859583L473.03661666666665,126.32625629582961L474.17190454666667,129.47172658822817L474.88424204,119.6463358357608L475.5965795333333,123.37051706440926L476.3089170266667,128.6444128782678L476.5148270833333,145.47039880804266L477.7335920133333,134.07432002356063L478.4459295066667,122.47987182362712L479.15826699999997,110.54648511088193L479.8706044933333,101.20273638110777L479.99303749999996,98.63334899882156L481.29527948,97.78117384612467L482.0076169733333,90.38165244402808L482.7199544666667,80.97459504034889L483.43229195999993,70.6877660786808L483.4712479166667,86.81812022487199L484.8569669466667,76.58280454216538L485.56930443999994,92.96573379592412L486.28164193333333,90.25634897054971L486.9494583333333,87.02799569651059L487.70631691999995,97.87337561657324L488.41865441333334,112.15699439530432L489.1309919066666,125.64280445400207L489.84332939999996,117.03391841827103L490.42766875,104.58832745824407L491.26800438666663,113.64251387733351L491.98034187999997,107.31513307385265L492.69267937333336,94.15439402083382L493.40501686666664,97.33906124686716L493.90587916666664,115.43290952016827L494.8296918533334,102.04301626194737L495.5420293466666,91.0092999036712L496.25436684,80.24353183950502L496.9667043333334,80.9567835068114L497.3840895833333,68.75617581309469L498.39137932,77.41801360565464L499.10371681333334,120.28102683171969L499.8160543066666,115.34227643014917L500.5283918,113.12760066453541L500.86229999999995,100.88853412019941L501.9530667866666,111.91779874710063L502.66540428,99.62358651867586L503.3777417733333,90.69068277474125L504.09007926666663,87.71310093962326L504.34051041666663,78.18022445125494L505.5147542533333,73.69087022763463L506.22709174666664,65.98455474835656L506.93942924000004,64.06105461709328L507.6517667333333,60.76917855686178L507.81872083333326,71.81329431987845L509.07644172000005,74.16276607354412L509.78877921333327,63.34701798733961L510.50111670666666,57.30021260523307L511.2134542,65.50901395556652L511.29693125,59.381600953958646L512.6381291866667,68.35317517365267L513.35046668,78.26193969205501L514.0628041733333,95.02474181445727L514.7751416666666,94.7438009924924L515.4874791599999,84.98794136685467L516.1998166533333,75.84315959038342L516.9121541466667,84.4193247394053L517.62449164,72.56796580851574L518.2533520833333,73.18117431683932L519.0491666266666,70.59483372089011L519.7615041199999,82.13575910773596L520.4738416133333,75.63857547936269L521.1861791066667,67.33072742817782L521.7315625,60.960667316897755L522.6108540933333,54.13808788862902L523.3231915866666,49.28639585723042L524.03552908,51.7117248046444L524.7478665733333,48.85097695562715L525.2097729166667,46.54936663397143L526.17254156,65.46801970518604L526.8848790533333,61.15019359743323L527.5972165466666,61.43003903853577L528.30955404,74.13769589239055L528.6879833333332,92.3348710286316L529.7342290266666,94.047214606662L530.44656652,103.86691219717204L531.1589040133333,113.69286207014513L531.8712415066666,98.19648904880772L532.1661937499999,85.59143295618111L533.2959164933334,90.71438812190348L534.0082539866667,84.11463580858363L534.72059148,83.5624709342719L535.4329289733332,75.7311478553218L535.6444041666667,69.87878503736198L536.85760396,62.95489294441221L537.5699414533333,59.16817238052253L538.2822789466667,58.594616064366924L538.99461644,55.36341269235486L539.1226145833333,67.80928523884025L540.4192914266666,60.00191806566637L541.13162892,55.61415362386459L541.8439664133333,47.99945705626792L542.5563039066667,55.75293127238365L542.600825,51.87787762537669L543.9809788933333,55.181821077902875L544.6933163866667,58.61787440144471L545.40565388,59.66185107174073L546.0790354166667,56.6783786841686L546.8303288666667,58.67743433379227L547.5426663599999,62.56760606007439L548.2550038533333,74.90456500736799L548.9673413466667,120.917688712328L549.5572458333334,112.78591828882887L550.3920163333333,99.16804297600895L551.1043538266666,131.02614599512427L551.8166913199999,114.65260960805792L552.5290288133333,99.76077062754156L553.0354562499999,90.83560880192871L553.9537038,80.8688266408076L554.6660412933334,79.38097247004485L555.3783787866666,74.53197331388459L556.0907162799999,85.26640276381548L556.5136666666666,82.02856247793679L557.5153912666667,71.61435991023072L558.22772876,72.98390582644289L558.9400662533334,69.73514464008383L559.6524037466666,74.41798258922444L559.9918770833333,68.2986892137519L561.0770787333333,77.36138065943088L561.7894162266666,70.92800743645962L562.50175372,65.32962380346625L563.2140912133333,63.24390733501928L563.4700875,76.06676722348836L564.6387662,83.28302168596161L565.3511036933334,106.02228110212816L566.0634411866666,148.49430082539828L566.77577868,154.0275177966286L566.9482979166667,136.55906585681547L568.2004536666666,120.91670061327265L568.91279116,109.40438902913496L569.6251286533334,107.203128636743L570.3374661466667,90.55925357886011L570.4265083333333,83.10957836768543L571.7621411333332,105.66591544078419L572.4744786266666,93.61413931579666L573.18681612,88.34463139706173L573.8991536133333,87.62852626424345L573.90471875,99.9144526547885L575.3238286,95.29227898773833L576.0361660933332,84.88940438057698L576.7485035866666,75.5804133861638L577.3829291666666,67.76483821077264L578.1731785733333,61.530456557743115L578.8855160666667,54.83007757868371L579.59785356,58.25455168426731L580.3101910533333,51.71211071769311L580.8611395833333,62.48339883328074L581.73486604,89.30472464882365L582.4472035333333,77.92833717578696L583.1595410266667,87.57644798339037L583.8718785199999,99.96611371724619L584.33935,85.84293908426787L585.2965535066667,85.78177437638146L586.008891,75.57572893735414L586.7212284933333,69.12757020781771L587.4335659866666,70.13559543576653L587.8175604166667,74.09504634076029L588.8582409733333,70.28380267854506L589.5705784666667,63.117673829199816L590.28291596,57.80300237202811L590.9952534533334,50.452417856175764L591.2957708333333,45.489372651739686L592.4199284399999,59.421332863286864L593.1322659333333,64.07623919134873L593.8446034266666,71.03128849379067L594.55694092,63.2969335518966L594.77398125,85.23547383837997L595.9816159066667,80.56869007777561L596.6939533999999,76.75072941524795L597.4062908933333,65.2751585839284L598.1186283866666,109.49377471432133L598.2521916666667,99.62427503379638L599.5433033733333,86.54692303961266L600.2556408666666,81.17283940465637L600.96797836,69.7323876297343L601.6803158533334,69.58676876404702L601.7304020833333,66.37242127850246L603.10499084,57.388558829678615L603.8173283333333,49.55710048513144L604.5296658266666,52.339813641991604L605.2086125,48.31217070550987L605.9543408133333,44.56843826237239L606.6666783066667,39.81493075848932L607.3790158,41.139614724779854L608.0913532933333,38.4769316600095L608.6868229166666,36.80125370539065L609.51602828,33.77617949659412L610.2283657733333,44.08191284598102L610.9407032666667,38.13682208251939L611.65304076,35.51742873665596L612.1650333333332,51.49056061295949L613.0777157466666,45.41620431983066L613.79005324,125.24539086239128L614.5023907333333,123.55684998000673L615.2147282266667,121.48014021808072L615.64324375,99.3121123364471L616.6394032133333,84.07812959590649L617.3517407066666,72.2385838167374L618.0640781999999,107.28693739142231L618.7764156933333,96.28763931476978L619.1214541666667,96.96465561178718L620.20109068,82.46417678038L620.9134281733333,75.70144750997973L621.6257656666667,75.72314167784877L622.33810316,65.38626370646068L622.5996645833334,63.13922275273907L623.7627781466667,60.80175598291964L624.4751156399999,53.704184266979105L625.1874531333333,61.184183004373935L625.8997906266667,60.090066407535296L626.077875,61.44277341852639L627.3244656133334,64.17084701805317L628.0368031066666,67.11124947540006L628.7491405999999,60.82667138143055L629.4614780933333,52.550087129628004L629.5560854166666,44.7872230453844L630.88615308,42.969234098012016L631.5984905733334,45.77557038691395L632.3108280666667,59.82292679626317L633.0231655599999,53.197076693574516L633.0342958333333,53.57974521310474L634.4478405466666,56.62195041141119L635.16017804,51.45747385242782L635.8725155333334,69.9177028924849L636.5125062499999,72.3010519064916L637.29719052,93.4593540461145L638.0095280133334,83.9107716632411L638.7218655066666,80.76922574531838L639.434203,87.8357886100926L639.9907166666667,77.01217790036306L640.8588779866666,112.10197364804827L641.57121548,114.07870370870693L642.2835529733333,110.97751250546241L642.9958904666667,93.2120734919504L643.4689270833334,107.20443162759196L644.4205654533333,91.92746171769488L645.1329029466666,83.67609088125741L645.84524044,87.11115075280554L646.5575779333333,82.14446572516499L646.9471374999999,76.16736570750103L647.9822529200001,65.00887642828118L648.6945904133332,58.156378127073765L649.4069279066666,56.52470475498583L650.1192654,53.530462879677394L650.4253479166666,46.96730098944108L651.5439403866667,40.70984750099803L652.25627788,39.91489368697531L652.9686153733333,36.07341421334038L653.6809528666666,32.61587962495739L653.9035583333333,31.043532912633303L655.1056278533333,36.114022728766955L655.8179653466667,55.33985384704794L656.53030284,48.1598686586545L657.2426403333333,43.46696301162329L657.38176875,37.282798183622944L658.66731532,45.58852122053287L659.3796528133333,38.70268548892551L660.0919903066667,34.92673675743164L660.8043277999999,34.178909760450395L660.8599791666666,57.543186719974166L662.2290027866667,52.449482391870234L662.94134028,47.48521918168426L663.6536777733334,45.000116106895824L664.3381895833332,41.06918328244492L665.0783527599999,41.81360460260891L665.7906902533333,53.45900600592775L666.5030277466666,87.30163588946398L667.21536524,78.99173576457363L667.8164,71.06787239906473L668.6400402266667,65.53406040580549L669.3523777199999,71.28652787444791L670.0647152133333,60.23142778963273L670.7770527066666,61.014163090456556L671.2946104166666,56.67834891620943L672.2017276933334,72.20347641681666L672.9140651866666,61.798342175479945L673.62640268,54.42731706702907L674.3387401733333,46.88480528065444L674.7728208333333,86.47277904535542L675.76341516,127.05605765919292L676.4757526533333,114.21316873968112L677.1880901466666,137.25333077670444L677.90042764,179.03554485402174L678.25103125,213.93097460459407L679.3251026266666,258.87889249950183L680.03744012,231.99671139043934L680.7497776133333,214.117637110773L681.4621151066666,181.24291061271245L681.7292416666667,151.5537595568565L682.8867900933333,126.954851913619L683.5991275866667,105.10419532521931L684.3114650800001,92.57175396575217L685.0238025733333,77.40304236634415L685.2074520833332,77.39250357725908L686.44847756,88.15684207966426L687.1608150533333,76.94105714890705L687.8731525466667,73.5769084861013L688.58549004,68.77915756978454L688.6856624999999,73.77076750704684L690.0101650266666,69.15883669531244L690.7225025199999,63.89249270987823L691.4348400133333,60.59752208960579L692.1471775066667,93.76402925581188L692.1638729166667,97.77153656091575L693.5718524933333,97.83281668585248L694.2841899866667,81.28964030639699L694.9965274799999,67.97239810958267L695.6420833333333,59.61600475406689L696.4212024666667,68.73681338022656L697.13353996,61.41010477195354L697.8458774533333,64.15114016508373L698.5582149466667,55.82339949569552L699.12029375,48.94379611347705L699.9828899333334,50.103174804241824L700.6952274266666,44.093519604539395L701.4075649199999,145.48759675280965L702.1199024133333,148.20106155023242L702.5985041666667,180.28393948728507L703.5445774,151.17817081102982L704.2569148933334,130.60989368714866L704.9692523866667,153.1540219146635L705.6815898799999,135.5035552879535L706.0767145833333,114.87050867162988L707.1062648666666,95.71819230525642L707.81860236,77.86545017653125L708.5309398533334,70.5388898381199L709.2432773466667,58.33973528814582L709.5549249999999,68.97475402382857L710.6679523333333,88.09861130087603L711.3802898266666,84.82838699688648L712.09262732,83.24773412450739L712.8049648133333,76.95318544288088L713.0331354166666,69.52592519674302L714.2296398,61.92206737199273L714.9419772933333,59.15177855382671L715.6543147866666,51.07027264929221L716.36665228,46.0502978805422L716.5113458333333,40.33248450842242L717.7913272666666,45.378633490856494L718.50366476,42.49294899195272L719.2160022533333,42.38657021716473L719.9283397466667,48.28128715285718L719.98955625,48.29976864600547L721.3530147333333,48.951282634619886L722.0653522266666,43.670361728349036L722.77768972,41.30677200242782L723.4677666666666,52.821632524706565L724.2023647066667,52.80371866573489L724.9147022,75.095212115531L725.6270396933332,78.12689429967475L726.3393771866666,101.11130306498121L726.9459770833333,91.45230577618582L727.7640521733333,76.43177201514328L728.4763896666667,78.60805785148607L729.18872716,66.33265142901315L729.9010646533333,55.08799297617498L730.4241875,49.2291781437117L731.3257396399999,42.010163646466175L732.0380771333333,39.05902382842411L732.7504146266667,34.20073768750408L733.46275212,31.163260115230013L733.9023979166666,29.685236897136985L734.8874271066667,33.10946210888611L735.5997646,38.76407623270557L736.3121020933334,36.16748136981174L737.0244395866666,33.06101916670607L737.3806083333333,30.355847456224833L738.4491145733333,30.166883418246016L739.1614520666666,28.922386897641964L739.87378956,29.008454064033685L740.5861270533334,32.66202486349126L740.85881875,42.339248214221975L742.0108020399999,39.51850966531107L742.7231395333333,37.55615461826106L743.4354770266666,35.58827535136997L744.14781452,38.4001126043635L744.3370291666666,36.48698896961089L745.5724895066667,35.032023965364885L746.284827,39.4571792518817L746.9971644933332,66.43821664706944L747.7095019866666,62.11018128947363L747.8152395833333,66.7442814467813L749.1341769733333,73.80180015876263L749.8465144666666,82.35385811821676L750.55885196,71.55241645627136L751.2711894533332,67.03795789645392L751.29345,62.06898452430523L752.69586444,54.17591595934042L753.4082019333333,50.25603092511872L754.1205394266666,44.21228019765529L754.7716604166667,45.972470819187635L755.5452144133333,44.38338248860681L756.2575519066667,75.60788178088826L756.9698894,77.21171499069297L757.6822268933333,69.89781862386269L758.2498708333333,61.05582954701133L759.1069018799999,56.64495082197211L759.8192393733333,58.54668303702407L760.5315768666667,56.61409282435318L761.24391436,49.262121542885644L761.72808125,45.95669585077201L762.6685893466666,40.571734365273244L763.3809268399999,49.25676247701605L764.0932643333333,48.26623829206652L764.8056018266667,44.890119849529206L765.2062916666666,66.11548258027109" style="fill: none;" fill="none"></path></g></g></g></g><g opacity="0.2"><g><g><g><path stroke="rgb(255, 112, 67)" stroke-width="2px" d="M75.97524577333333,417.50677559110846L76.52062916666665,246.28237287203464L77.39992076,290.191360314687L78.11225825333332,286.7504335112041L78.82459574666667,242.4983895487255L79.53693324,310.2195941739611L79.99883958333334,357.20884965525727L80.96160822666667,196.40060663223258L81.67394571999999,300.5693193938996L82.38628321333333,238.5109192795223L83.09862070666667,332.14799662431074L83.47705,279.20593652460303L84.52329569333332,197.33814464675052L85.23563318666666,297.7510876125759L85.94797068,169.56367459562085L86.66030817333332,574.9286462863284L86.95526041666666,246.62393132845554L88.08498316,318.8137342532475L88.79732065333333,464.9551875061458L90.22199563999999,558.9631603823766L90.43347083333333,262.81624899970154L91.64667062666666,159.23540128601917L92.35900812,145.89027795526712L93.07134561333334,184.3612952364815L93.78368310666666,249.86536602179203L93.91168125,223.34652278158396L95.20835809333333,126.16739935345117L95.92069558666667,276.6327629486719L96.63303308,257.7921188539928L97.34537057333333,225.80309708913163L97.38989166666667,277.4407184786266L98.77004555999999,323.45585823059076L99.48238305333334,261.39383779631714L100.19472054666667,264.5220438639322L100.86810208333333,424.707966380649L101.61939553333333,401.59459577666377L102.33173302666665,317.51953230963807L103.04407051999999,310.79447600576606L103.75640801333333,270.47235171000153L104.3463125,556.6797372367645L106.60575798666666,435.4800409740871L107.31809548,341.24186568790003L107.82452291666668,618.7718437777623L108.74277046666667,398.94876612557294L109.45510795999998,366.19435879919257L110.16744545333333,567.8963621457416L112.30445793333334,565.8609933323329L113.01679542666665,355.8265116479661L113.72913292,379.6745575136608L114.44147041333333,323.99316363864466L114.78094375,303.9266043239169L115.86614540000001,274.1686983240974L116.57848289333332,238.91951607333286L117.29082038666667,337.5350326299667L118.00315788,397.1922867827944L119.42783286666668,392.5995988978279L120.14017035999998,253.31328378783329L120.85250785333334,142.8827908304002L121.56484534666666,200.65298444694938L121.73736458333333,214.9160461293326L122.98952033333333,186.52911782264707L123.70185782666665,236.14635103278684L124.41419532,182.11632238494022L125.12653281333333,228.16454437043924L125.21557499999999,126.12220777405629L126.5512078,181.9896111885706L127.26354529333332,82.05192883809406L127.97588278666667,333.7430596351623L128.68822028,184.29625431696567L128.69378541666666,183.9846571286519L130.11289526666664,140.18565250767597L130.82523276,185.9034266736772L131.53757025333334,275.25054977999787L132.1719958333333,250.74809988339737L132.96224524,189.8445818159315L133.67458273333332,237.38624817795218L134.38692022666666,205.23356298605597L135.09925772,169.0116382307476L135.65020625,297.8849146101209L136.52393270666667,180.77555563714765L137.23627019999998,623.000876771079L137.94860769333334,273.0832265483008L138.66094518666668,262.0831966400146L139.12841666666665,86.1407680643929L140.08562017333333,224.5877931515375L140.79795766666666,205.52593502733438L141.51029516,175.52084856563138L142.2226326533333,157.99300736851157L142.60662708333334,174.6714466147952L143.64730764,249.02994599607248L144.35964513333332,273.7763305505116L145.07198262666665,268.16146406862464L145.78432012,192.79202156596708L146.0848375,587.4068902598485L147.20899510666666,453.45692667696204L147.9213326,318.906114829911L148.63367009333334,157.38803942998246L149.34600758666664,237.38038076294788L149.56304791666668,223.2960879802703L150.77068257333332,341.00404812229993L151.48302006666665,193.13595195611313L152.19535756,184.17516085836618L152.90769505333333,63.34710915883381L153.0412583333333,111.60597337616811L154.33237003999997,187.08077967166898L155.04470753333334,118.81665190060932L155.75704502666667,198.92721540398063L156.46938251999998,190.80034626854786L156.51946875,119.22712127367653L157.89405750666666,230.67092928621494L158.606395,393.7377525700462L159.31873249333333,227.4091458982891L159.99767916666667,272.60684238539795L160.74340748,229.4307824638154L161.4557449733333,267.9612229267755L162.16808246666668,187.84866200553043L162.88041995999998,428.23877698845325L163.47588958333333,258.8100529379314L164.30509494666666,249.21495682663382L165.01743244,221.45609160264328L165.72976993333333,150.79918205738065L166.44210742666664,134.59737665123407L166.9541,190.1108625862333L167.86678241333334,143.33046211136707L168.57911990666665,158.94015795654715L169.2914574,218.29617652628153L170.00379489333332,236.23311387168033L170.43231041666667,228.77200908131064L171.42846988,212.55072885089444L172.14080737333333,250.7428566614786L172.85314486666667,229.72340418232807L173.56548235999998,214.55301543076828L173.91052083333332,132.3004709349738L174.99015734666665,207.7370766136381L175.70249483999999,168.33938227759464L176.41483233333335,193.93254717191056L177.12716982666666,157.7871484888924L177.38873124999998,290.3590185774696L178.55184481333333,278.66501079665284L179.26418230666667,188.4599967135323L179.9765198,188.2123168971803L180.6888572933333,235.0376592742072L180.86694166666666,185.83451575703086L182.11353228,263.9024698072009L182.82586977333332,300.232504804929L183.53820726666666,173.9059362146589L184.25054476,173.22968542575833L184.34515208333332,193.79809598127997L185.67521974666664,106.8149169286092L186.38755724,206.87881112098685L187.09989473333331,131.69849912325537L187.81223222666665,150.19259121682904L187.8233625,265.5825479163063L189.23690721333332,163.4747958845562L189.94924470666666,117.40285456180568L190.6615822,134.81509519947895L191.30157291666666,282.2884516583548L192.08625718666664,173.79021081659525L192.79859467999998,105.1496946149402L193.51093217333334,306.87454342842096L194.22326966666665,364.65884380870386L194.77978333333334,74.04690219296346L195.64794465333333,220.3613817691802L196.36028214666666,84.9126057492362L197.07261964,171.27733429272965L197.78495713333334,103.28248341878253L198.25799375,199.60621264245768L199.20963211999998,134.39701067076786L199.92196961333332,76.77462597688037L200.63430710666665,208.5702495442496L201.3466446,224.49091838465793L201.73620416666665,63.89952003955841L202.77131958666666,82.15517037444643L203.48365708,221.77904910511435L204.1959945733333,250.01741945743552L204.90833206666665,290.2345544762081L205.2144145833333,187.8435436222288L206.33300705333332,177.16335025098584L207.04534454666666,55.816843774583575L207.75768204,257.6976160208383L208.47001953333333,152.25592388047107L208.692625,133.98866355419156L209.89469452,61.06930375099182L210.6070320133333,67.05968479315437L211.31936950666667,113.12725676430593L212.03170699999998,316.0329540570576L212.17083541666665,102.86077857017513L213.45638198666668,129.57461973031357L214.16871948,154.85980775621198L214.88105697333333,192.23299423853553L215.59339446666664,179.12568847338355L215.64904583333336,200.85959235827124L217.01806945333334,73.97124999099306L217.73040694666665,260.5459339088863L218.44274444,130.43663038147815L219.12725625,197.11181223392478L219.86741942666666,155.70646325747168L220.57975691999997,116.00441237290698L221.29209441333333,120.99920544359414L222.00443190666667,85.78385445806714L222.60546666666664,265.11190632979066L223.42910689333334,147.6984404855304L224.14144438666665,177.49155097537565L224.85378187999999,142.66694486141202L225.56611937333335,132.19985100958078L226.0836770833333,127.11305187808138L226.99079436,141.14241566922925L227.7031318533333,98.12627401616835L228.41546934666667,79.58461840947467L229.12780684,87.36418651209937L229.5618875,93.85442137718196L230.55248182666668,79.28263379467855L231.26481932,85.05679435200159L231.97715681333332,121.49194346533876L232.68949430666663,103.95349098576436L233.04009791666667,205.89008927345267L234.11416929333333,92.84023245175678L234.82650678666664,174.56658217642038L235.53884428,109.18859839439388L236.25118177333334,228.2272133562299L236.51830833333332,126.95987489488387L237.67585675999996,97.25727240244545L238.38819425333332,411.85920139153785L239.10053174666666,81.55207501517401L239.81286923999997,105.7671464151806L239.99651874999998,123.44741556379525L241.23754422666667,131.611861122979L241.94988171999998,261.4497654967837L242.66221921333334,146.67900833818643L243.37455670666665,163.5427080922656L243.47472916666666,173.09897939364112L244.7992316933333,179.18960584534534L245.51156918666666,193.97711455821982L246.22390668,267.8748346037334L246.9362441733333,141.27000073591864L246.95293958333332,116.5623161527845L248.36091916,84.22511948479543L249.07325665333332,129.12045684125684L249.78559414666663,126.09112295839516L250.43114999999997,138.7229184309641L251.21026913333333,106.36487371391718L251.92260662666664,146.43357561694248L252.63494412,117.74303979343836L253.34728161333334,76.5057235956192L253.90936041666663,178.47078508800925L254.7719566,75.02338985602059L255.48429409333335,165.18683267964252L256.1966315866666,165.51990211009976L256.90896907999996,71.40469286176892L257.3875708333333,173.5476493835449L258.33364406666664,108.74329904715218L259.04598156,151.11589762899607L259.75831905333337,67.57239699363708L260.47065654666665,104.58679729037813L260.86578125,169.04521981875098L261.8953315333333,270.4592436552047L262.60766902666666,156.76197376516126L263.32000652,144.20757823520233L264.03234401333333,140.70398244592874L264.3439916666666,107.422880993949L265.457019,357.9987035857306L266.16935649333334,144.08898154894507L266.8816939866666,175.47690537240766L267.59403148,201.50026414129465L267.82220208333337,95.62663038571674L269.01870646666663,120.36689784791731L269.73104396,216.7805108759138L270.4433814533333,208.1194572978549L271.15571894666664,240.0832616620593L271.3004125,186.82148986392545L272.5803939333333,188.26275169849393L273.29273142666665,143.67926120758054L274.00506892,205.18562495708457L274.7174064133333,103.39483817418414L274.7786229166667,198.09167053964396L276.1420814,323.0265382263395L276.85441889333333,114.31671910815767L277.56675638666667,86.70291635725232L278.2568333333333,125.73932773537103L278.9914313733333,174.26060272587665L279.7037688666667,45.577954914834734L280.41610636,117.2202156649695L281.1284438533333,41.39748414357502L281.73504375,79.40272854434119L282.55311883999997,154.2823043134477L283.2654563333333,57.96818766329022L283.9777938266667,154.02725901868604L284.69013132,33.202952477667054L285.2132541666667,42.79317988289728L286.11480630666665,110.87142295307581L286.8271438,303.1565997335645L287.5394812933333,238.92376058631467L288.25181878666666,50.3477887974845L288.6914645833333,149.49199689759143L289.67649377333333,111.15255951881404L290.38883126666667,191.94898638460367L291.10116875999995,110.03375583224825L291.81350625333334,54.245250423749276L292.169675,158.12458727094858L293.23818123999996,45.82213924990759L293.95051873333335,102.5438133213255L294.66285622666663,120.94764709472652L295.37519371999997,66.50128165880837L295.64788541666667,115.4843346940146L296.79986870666664,53.90306777424281L297.5122062,52.35407021310591L298.2245436933333,136.83510886298282L298.93688118666665,27.756118774414062L299.12609583333335,244.55086125267871L300.3615561733333,167.05267065101194L301.07389366666666,120.02596358458199L301.78623116,140.07105065716632L302.49856865333334,103.819289472368L302.60430625,259.98715625868897L303.92324364,179.69657546944083L304.63558113333335,283.836700187789L305.3479186266666,107.43648840321431L306.06025612,98.25161198774971L306.0825166666666,127.21417115794283L307.48493110666664,75.87828470600972L308.1972686,162.24800679418772L308.9096060933333,89.0415181716283L309.56072708333335,108.4486799107657L310.33428108,68.37823026710085L311.0466185733333,56.497588753700256L311.75895606666666,58.03185535801782L312.47129356,132.90468984180023L313.0389375,46.62335349453821L313.89596854666667,95.55896785524153L314.60830604,66.56869451204933L315.3206435333333,74.09846054183112L316.0329810266667,77.80179811848531L316.51714791666666,81.25246233410303L317.4576560133333,62.35289441214667L318.1699935066667,75.12051430013442L318.882331,190.6090935071309L319.5946684933333,311.8896851936975L319.99535833333334,126.64790319071871L321.01934348,177.25985050201413L321.7316809733333,193.5651471217473L322.44401846666665,159.283838669459L323.15635596,182.56698979271778L323.47356874999997,276.01818243662507L324.58103094666666,181.29600783189133L325.29336844,693.7142133712767L326.00570593333333,224.54085383150309L326.71804342666667,170.48897842566168L326.95177916666665,166.50300621986386L328.14271841333334,306.09180529912305L328.8550559066667,279.64349587758375L329.56739339999996,321.29340370496107L330.27973089333335,135.67423456244995L330.4299895833333,51.458228296703744L331.70440587999997,131.4151154624091L332.4167433733333,130.22090925110706L333.12908086666664,53.80844010247125L333.84141836,87.33023040824465L333.9082,140.21623796886865L335.26609334666665,99.3526885906855L335.97843084,60.91375483406911L336.6907683333333,63.83148299323187L337.38641041666665,78.51200501124062L338.11544332,46.412875586085825L338.82778081333333,63.17483186721802L339.5401183066666,60.07458964983619L340.2524558,45.43701211611427L340.86462083333333,146.07017040252683L341.6771307866666,229.1027065780427L342.38946828,57.663706276151856L343.10180577333335,80.10407189528145L343.81414326666663,83.35661722554097L344.34283124999996,47.093246049351144L345.2388182533333,102.75940961307947L345.95115574666664,30.721909801165236L346.66349324,168.58082016309098L347.3758307333333,63.87729876571229L347.82104166666664,52.377914388974496L348.80050572,84.68951914045545L349.5128432133333,153.08759874767722L350.22518070666666,135.0536617967817L350.9375182,102.25343869792086L351.29925208333333,152.29412449730762L352.3621931866667,422.5410176648033L353.07453068,77.32803556654187L353.7868681733333,137.66953017976545L354.4992056666667,42.4296498298645L354.77746249999996,70.03708581129708L355.9238806533333,289.757920636071L356.63621814666664,86.2519992722405L357.34855564,240.70470829804734L358.0608931333333,146.998095843527L358.25567291666664,99.79361858632826L359.48556812,61.87576121754115L360.1979056133333,73.62669540776143L360.91024310666666,119.99300618966419L361.6225806,117.05318159527246L361.7338833333333,119.36843858824831L363.04725558666667,103.19597025712329L363.75959307999995,261.053153210216L364.47193057333334,92.74235897594026L365.1842680666667,95.68243324756618L365.21209375,106.57160646385614L366.60894305333335,66.76069630516896L367.3212805466667,113.77916402286951L368.03361803999996,63.255477613872934L368.69030416666664,40.36694135930804L369.4582930266667,119.50239042441048L370.17063052,134.85079904397324L370.8829680133333,76.10811260011458L371.59530550666665,81.22412396801839L372.1685145833333,47.82679776350654L373.0199804933333,43.80499687459731L373.73231798666666,53.85600361559125L374.44465548,41.923554076088806L375.15699297333333,32.541682322820016L375.646725,42.09970136483509L376.58166796,186.75632410579252L377.29400545333334,85.78160736295911L378.0063429466666,50.511327385902405L378.71868044,161.4174554745356L379.12493541666663,238.10369571050003L380.14335542666663,70.1534354024463L380.85569291999997,111.62195271915857L381.56803041333336,370.8626988861295L382.28036790666664,182.71679613325327L382.6031458333333,91.62293109628888L383.7050428933333,122.4181211656994L384.41738038666665,68.16413203875221L385.12971788,94.28062041600543L385.8420553733333,44.28512619601355L386.08135625,85.53904592990871L387.26673036,55.905479192733765L387.9790678533333,175.81322060690982L388.69140534666667,44.47288347615137L389.40374284,32.59785970052082L389.5595666666667,37.56506343682606L390.8284178266666,254.63582409752732L391.54075532,65.89144501421185L392.2530928133333,48.76645803451538L392.96543030666663,49.744318922360726L393.0377770833333,157.16083314683698L394.3901052933333,136.51539716455667L395.10244278666664,71.55362533198462L395.81478028,67.00051128864288L396.5159875,79.24830317497249L397.23945526666665,67.35130780273012L397.95179276,235.9678318103154L398.6641302533333,264.7332708040872L399.37646774666666,131.76029423872626L399.9941979166667,152.44805051220783L400.80114273333334,69.59752904044257L401.5134802266667,101.76656809118056L402.22581771999995,62.29471961657203L402.9381552133333,75.38142700990039L403.4724083333333,52.16731164190503L404.36283019999996,60.99065542221069L405.0751676933333,60.614266991615295L405.7875051866667,49.43334592713251L406.49984268,30.699064334233586L406.95061875,171.12553053432035L407.9245176666667,98.06797438197664L408.63685516,100.42030844423505L409.3491926533333,126.37687855296663L410.06153014666666,181.32159974839948L410.4288291666666,122.24422097206111L411.4862051333333,82.95538591014014L412.19854262666667,86.63824995358783L412.91088012,58.26368066999646L413.62321761333334,34.770176476902414L413.90703958333336,48.59767622417872L415.04789259999995,308.90566772884785L415.76023009333335,174.63699115647205L416.4725675866666,138.1129569477505L417.18490507999996,78.17668848567537L417.38525,88.02583118279773L418.60958006666664,145.40590412086908L419.32191756,213.6368248197767L420.03425505333337,132.25840032100675L420.7465925466666,141.86585545539853L420.8634604166666,236.42811179161063L422.1712675333333,175.2247313658396L422.8836050266666,141.9719682799445L423.59594252,167.73366530736283L424.30828001333333,86.12391485108266L424.3416708333333,154.0065358082453L425.732955,67.58001214928095L426.44529249333334,114.32895329263472L427.1576299866666,50.75713462299769L427.8198812499999,118.79130966133539L428.58230497333335,73.0881416135364L429.29464246666663,100.71080790625673L430.00697996,288.36746811866755L430.7193174533333,204.12499606609336L431.2980916666667,295.09876635339515L432.14399244000003,104.56607407993738L432.85632993333326,173.20159673690793L433.56866742666665,317.7300102180904L434.28100492,135.0255731079313L434.77630208333335,92.93548431661391L435.70567990666666,102.01037791040206L436.4180174,56.6316654284795L437.1303548933333,277.8604259093602L437.84269238666667,329.9272424644893L438.2545125,242.8612954086727L439.2673673733333,115.41217797332338L439.9797048666667,115.78244931168024L440.69204235999996,52.62272291713288L441.4043798533333,77.05114351378546L441.73272291666666,38.33269609345331L442.82905483999997,32.34393795331318L443.5413923333333,193.96949940257596L444.2537298266667,65.09809560245935L444.9660673199999,31.120894021458078L445.2109333333333,67.84691711266834L446.3907423066667,126.14755001333022L447.10307979999993,96.91821071836682L447.8154172933333,91.84751576847498L448.52775478666666,181.7737652195824L448.68914374999997,49.577659368515015L449.95242977333334,42.54013200600941L450.6647672666667,194.99305122428464L451.37710475999995,100.1683841149012L452.08944225333335,202.91506018903513L452.1673541666666,125.23597843117182L453.51411723999996,67.05681350496077L454.22645473333336,107.31102559301587L454.93879222666664,124.39356744289394L455.6455645833333,56.48285779688092L456.36346721333337,39.93175394005244L457.0758047066666,56.74089921845331L457.7881422,51.65260202354853L458.5004796933334,154.4698119163513L459.123775,179.27474578221634L459.92515468,79.52507038911182L460.6374921733333,112.80742022726265L461.3498296666666,62.83264921771155L462.06216716,111.46016187138025L462.60198541666665,65.77646864785085L463.4868421466666,90.04871613449518L464.19917964,238.7730803754594L464.9115171333333,129.32956152492096L465.6238546266666,295.7562913497288L466.08019583333333,159.15063586499951L467.0485296133333,174.77718492348984L467.76086710666664,47.07676735189223L468.47320460000003,98.12365240520899L469.1855420933333,143.81333788235978L469.55840624999996,117.43506292502083L470.61021708000004,119.43410370084969L471.32255457333326,116.90974202420973L472.03489206666666,96.50449554125466L472.74722956,85.98422043853334L473.03661666666665,178.8290719191233L474.17190454666667,140.88861876063874L474.88424204,83.9838064379162L475.5965795333333,136.88791559802158L476.3089170266667,147.7867013878292L476.5148270833333,206.54249588648474L477.7335920133333,92.71077480581069L478.4459295066667,80.39631909794275L479.15826699999997,67.23271111647286L479.8706044933333,67.28838913970522L479.99303749999996,89.30742442607875L481.29527948,94.68809366226192L482.0076169733333,63.5241303178999L482.7199544666667,46.83046076032849L483.43229195999993,33.350386884477416L483.4712479166667,145.36533157030738L484.8569669466667,39.43239947160084L485.56930443999994,152.42969923549225L486.28164193333333,80.42228553030225L486.9494583333333,75.31026899814606L487.70631691999995,137.23808791902326L488.41865441333334,164.0012403329213L489.1309919066666,174.59130022260874L489.84332939999996,85.78685058487783L490.42766875,59.4154417514801L491.26800438666663,146.50585717625083L491.98034187999997,84.34908423158856L492.69267937333336,46.38578560617232L493.40501686666664,108.89822377098928L493.90587916666664,181.1068773269653L494.8296918533334,53.442662954330444L495.5420293466666,50.96099608474305L496.25436684,41.16778108808728L496.9667043333334,83.54562289184992L497.3840895833333,24.47248862849341L498.39137932,108.85727670457625L499.10371681333334,275.85788965225214L499.8160543066666,97.4164416392644L500.5283918,105.08914788564044L500.86229999999995,56.46525555186799L501.9530667866666,151.94994442992737L502.66540428,55.00014954143098L503.3777417733333,58.26755066712696L504.09007926666663,76.90558168623181L504.34051041666663,43.57941349347431L505.5147542533333,57.3961771196789L506.22709174666664,38.013483749495606L506.93942924000004,57.07946154806348L507.6517667333333,48.8208876715766L507.81872083333326,111.89934412638344L509.07644172000005,82.69047836462654L509.78877921333327,24.089858267042363L510.50111670666666,35.35254862573413L511.2134542,95.30392256047988L511.29693125,37.14136117034486L512.6381291866667,100.91666678587593L513.35046668,114.22708498107058L514.0628041733333,155.86750507354733L514.7751416666666,93.7240898609161L515.4874791599999,49.5777842071321L516.1998166533333,42.650988698005676L516.9121541466667,115.54762787289087L517.62449164,29.551922281583135L518.2533520833333,75.40689408779144L519.0491666266666,61.20737526151868L519.7615041199999,124.02504384517665L520.4738416133333,52.05620527267456L521.1861791066667,37.17631598313648L521.7315625,37.839708394474435L522.6108540933333,29.374651445282836L523.3231915866666,31.676550706227605L524.03552908,60.51477061377631L524.7478665733333,38.46752179993524L525.2097729166667,38.1953736146291L526.17254156,134.13572344515055L526.8848790533333,45.47808402114442L527.5972165466666,62.44577434327864L528.30955404,120.26178373230825L528.6879833333332,158.38387707869208L529.7342290266666,100.26238759358722L530.44656652,139.50877752568982L531.1589040133333,149.35742086834372L531.8712415066666,41.95039437876807L532.1661937499999,39.839747879240235L533.2959164933334,109.3088179826736L534.0082539866667,60.159979263941416L534.72059148,81.55831694602962L535.4329289733332,47.30634556876288L535.6444041666667,48.63687554995216L536.85760396,37.82372905148401L537.5699414533333,45.42377922270032L538.2822789466667,56.51281906498804L538.99461644,43.635341193940874L539.1226145833333,112.98319300015766L540.4192914266666,31.664066844516306L541.13162892,39.688193798065186L541.8439664133333,20.360928773880005L542.5563039066667,83.89517101976605L542.600825,37.81286809179517L543.9809788933333,67.17391212781268L544.6933163866667,71.08947535355884L545.40565388,63.451099726888856L546.0790354166667,45.84947890705531L546.8303288666667,65.93326595094466L547.5426663599999,76.68748862213556L548.2550038533333,119.68315674198995L548.9673413466667,287.9282858636643L549.5572458333334,83.27060341835018L550.3920163333333,49.74019924799598L551.1043538266666,246.65926065709849L551.8166913199999,55.222736795743295L552.5290288133333,45.70891062418617L553.0354562499999,58.44057699044544L553.9537038,44.693098796738525L554.6660412933334,73.98061288727651L555.3783787866666,56.93190230263605L556.0907162799999,124.22840595245357L556.5136666666666,70.27640144030251L557.5153912666667,33.81466170152027L558.22772876,77.95485026306574L558.9400662533334,57.94334477848475L559.6524037466666,91.41494996017877L559.9918770833333,46.08792066574097L561.0770787333333,110.25559405485787L561.7894162266666,47.57724536789789L562.50175372,45.0095646911197L563.2140912133333,55.673529042138L563.4700875,122.60899941126503L564.6387662,109.47535269790224L565.3511036933334,188.55737083488035L566.0634411866666,302.65200204319416L566.77577868,174.1110460625754L566.9482979166667,73.1550551123089L568.2004536666666,64.14070824782051L568.91279116,67.61896179782019L569.6251286533334,99.2133686939875L570.3374661466667,30.148151516914368L570.4265083333333,56.07001649008856L571.7621411333332,187.53706481721662L572.4744786266666,49.870655602878976L573.18681612,69.21826932165357L573.8991536133333,85.02932985623676L573.90471875,144.50781510935886L575.3238286,78.51550049251978L576.0361660933332,47.13082247310212L576.7485035866666,41.792223850885996L577.3829291666666,39.39719498157501L578.1731785733333,38.90196018748811L578.8855160666667,30.510183506541757L579.59785356,70.68412436379323L580.3101910533333,27.965473135312383L580.8611395833333,101.5791853268941L581.73486604,186.65620353486798L582.4472035333333,36.63626412550605L583.1595410266667,122.59551684061684L583.8718785199999,144.9360115660561L584.33935,34.58104597197638L585.2965535066667,85.55976914034949L586.008891,38.53156401051416L586.7212284933333,45.72314222653706L587.4335659866666,73.79435367054407L587.8175604166667,88.46638666258917L588.8582409733333,56.45039975643158L589.5705784666667,37.10728022787305L590.28291596,38.51271337933009L590.9952534533334,23.77251850234137L591.2957708333333,27.475356724527156L592.4199284399999,109.98918844593892L593.1322659333333,80.97182512283321L593.8446034266666,96.2755415174696L594.55694092,35.22408968872492L594.77398125,164.8642496930228L595.9816159066667,63.629993465211626L596.6939533999999,62.892946269777056L597.4062908933333,23.623086677657227L598.1186283866666,269.9909740024142L598.2521916666667,63.80164656374188L599.5433033733333,39.08097876442804L600.2556408666666,61.66690621111127L600.96797836,28.20778489112854L601.6803158533334,69.05822621451483L601.7304020833333,54.705530405044556L603.10499084,24.78046549691095L603.8173283333333,21.13180723455218L604.5296658266666,62.44003176689148L605.2086125,33.69331856568653L605.9543408133333,30.980076061354737L606.6666783066667,22.561459077729126L607.3790158,45.947726898723154L608.0913532933333,28.81237831380633L608.6868229166666,30.719163351588755L609.51602828,22.796280516518493L610.2283657733333,81.48790796597797L610.9407032666667,16.558344496621032L611.65304076,26.0100010368559L612.1650333333332,109.46711334917279L613.0777157466666,23.368540737364018L613.79005324,414.9957716464996L614.5023907333333,117.42807196246248L615.2147282266667,113.94245293405318L615.64324375,18.850381506813903L616.6394032133333,28.784414463573007L617.3517407066666,29.265417655309026L618.0640781999999,234.49947999583347L618.7764156933333,56.364261110623666L619.1214541666667,99.42197402318317L620.20109068,29.832809170087163L620.9134281733333,51.15524497297072L621.6257656666667,75.80188347233663L622.33810316,27.867225143644536L622.5996645833334,54.98329632812074L623.7627781466667,52.317617336908945L624.4751156399999,27.942627668380737L625.1874531333333,88.33380805121527L625.8997906266667,56.1188283893797L626.077875,66.3525988658269L627.3244656133334,74.07274378670583L628.0368031066666,77.78382135762105L628.7491405999999,38.01598052183784L629.4614780933333,22.509151697158813L629.5560854166666,16.610901554425542L630.88615308,36.370607548289804L631.5984905733334,55.961531731817445L632.3108280666667,110.80962783760492L633.0231655599999,29.14769483937158L633.0342958333333,54.96869020991853L634.4478405466666,67.66402853859792L635.16017804,32.71233671241334L635.8725155333334,136.92149718602494L636.5125062499999,80.95172610547804L637.29719052,170.25615440474613L638.0095280133334,49.25295412540436L638.7218655066666,69.36657759878369L639.434203,113.48479456371729L639.9907166666667,37.72647976875305L640.8588779866666,239.46493599149906L641.57121548,121.25350170665315L642.2835529733333,99.7213370270199L642.9958904666667,28.73010966512891L643.4689270833334,157.99150930510623L644.4205654533333,36.477719081772705L645.1329029466666,53.72667080826228L645.84524044,99.57914584212831L646.5575779333333,64.11723858780329L646.9471374999999,54.472706384128976L647.9822529200001,24.507693118519235L648.6945904133332,33.28434725602467L649.4069279066666,50.60233473777771L650.1192654,42.66247385078004L650.4253479166666,23.145454128583257L651.5439403866667,17.997608913315673L652.25627788,37.02950576941169L652.9686153733333,22.13026649422114L653.6809528666666,20.06630963749354L653.9035583333333,25.3364966975318L655.1056278533333,54.51802280214095L655.8179653466667,125.12250012821619L656.53030284,22.099181678560054L657.2426403333333,26.433453626102853L657.38176875,14.836570289399898L658.66731532,75.73521965079836L659.3796528133333,13.709652092721736L660.0919903066667,21.221441361639226L660.8043277999999,31.464574734369886L660.8599791666666,142.34685864713452L662.2290027866667,33.96122223801081L662.94134028,29.466782344712158L663.6536777733334,35.98011235396064L664.3381895833332,26.801353030734568L665.0783527599999,44.51557828320398L665.7906902533333,95.72749998834395L666.5030277466666,210.1378480593363L667.21536524,48.82987605200873L667.8164,42.307183146476746L668.6400402266667,45.448372430271554L669.3523777199999,92.16585424211287L670.0647152133333,20.105508963267024L670.7770527066666,63.855202330483294L671.2946104166666,40.94094932079315L672.2017276933334,128.5539391967985L672.9140651866666,24.031558632850647L673.62640268,27.67322593265107L674.3387401733333,19.508281018998897L674.7728208333333,230.16246159871415L675.76341516,274.35832818349195L676.4757526533333,67.59823858737946L677.1880901466666,220.88058557775278L677.90042764,330.6895070605807L678.25103125,340.5884603659311L679.3251026266666,422.023187081019L680.03744012,134.4243503279156L680.7497776133333,149.22321935494736L681.4621151066666,61.91982924938202L681.7292416666667,43.79313720597162L682.8867900933333,37.66992787520088L683.5991275866667,25.79440474510193L684.3114650800001,47.083633475833444L685.0238025733333,22.346237301826477L685.2074520833332,77.35425167613558L686.44847756,127.22740405135683L687.1608150533333,36.23191184467738L687.8731525466667,61.3662948211034L688.58549004,51.365098688337525L688.6856624999999,91.88846283488802L690.0101650266666,52.41923597123885L690.7225025199999,44.777614540523935L691.4348400133333,48.637999097506174L692.1471775066667,214.14616637759732L692.1638729166667,112.31730381647743L693.5718524933333,98.05524084303113L694.2841899866667,21.24403715133667L694.9965274799999,19.635741247071167L695.6420833333333,29.285391834047115L696.4212024666667,101.84197061591676L697.13353996,34.816866119702645L697.8458774533333,74.10008344385358L698.5582149466667,25.596785214212215L699.12029375,23.97338383727601L699.9828899333334,54.31129005220198L700.6952274266666,22.28069702784222L701.4075649199999,513.5105434391232L702.1199024133333,158.04993377791507L702.5985041666667,296.732903851403L703.5445774,45.53501043054791L704.2569148933334,55.95466560787623L704.9692523866667,234.98085770342075L705.6815898799999,71.43889864285785L706.0767145833333,39.98019132349225L707.1062648666666,26.2023773458269L707.81860236,13.066608375973153L708.5309398533334,43.94618935055201L709.2432773466667,14.06132247712878L709.5549249999999,107.57593313852944L710.6679523333333,157.51113030645578L711.3802898266666,72.95868396759033L712.09262732,77.51054962476093L712.8049648133333,54.1063050429026L713.0331354166666,42.56772134039136L714.2296398,34.322879711786875L714.9419772933333,49.09665617677899L715.6543147866666,21.737399366166866L716.36665228,27.829648719893555L716.5113458333333,19.57893967628479L717.7913272666666,63.69428535302479L718.50366476,32.01898303296832L719.2160022533333,42.00045466423035L719.9283397466667,69.67692640092635L719.98955625,48.36684962113697L721.3530147333333,51.31603711181214L722.0653522266666,24.5025747352176L722.77768972,32.727816700935364L723.4677666666666,94.61631145742201L724.2023647066667,52.73869799243079L724.9147022,156.00507722960575L725.6270396933332,89.13077778286402L726.3393771866666,184.53619413905668L726.9459770833333,56.39372302426233L727.7640521733333,21.91279762321046L728.4763896666667,86.50716940561928L729.18872716,21.77747256226008L729.9010646533333,14.27404748068915L730.4241875,27.96385023328992L731.3257396399999,15.807814730538267L732.0380771333333,28.34747930367786L732.7504146266667,16.56695836120179L733.46275212,20.138341519567692L733.9023979166666,24.32056003146699L734.8874271066667,45.53813139597572L735.5997646,59.28823120064204L736.3121020933334,26.74280371930865L737.0244395866666,21.78571191098956L737.3806083333333,20.53707606262629L738.4491145733333,29.481013947062998L739.1614520666666,24.40532545248669L739.87378956,29.320846001307142L740.5861270533334,45.923133691151925L740.85881875,77.46398482057782L742.0108020399999,29.280273450745483L742.7231395333333,30.43353259563446L743.4354770266666,28.44560245672859L744.14781452,48.60604041152528L744.3370291666666,29.543058739768128L745.5724895066667,29.751039875878234L746.284827,55.518853995535096L746.9971644933332,164.36938941478726L747.7095019866666,46.40101591746009L747.8152395833333,83.56434868441687L749.1341769733333,99.41797918743555L749.8465144666666,113.39466108216176L750.55885196,32.3471837573581L751.2711894533332,50.652145346005746L751.29345,44.03345154391394L752.69586444,25.527000427246094L753.4082019333333,36.02830006016626L754.1205394266666,22.275703483157663L754.7716604166667,52.3613108528985L755.5452144133333,38.615580399831124L756.2575519066667,188.94124958250254L756.9698894,83.03303552998433L757.6822268933333,43.3510836627748L758.2498708333333,28.962684008810246L759.1069018799999,40.635094708866525L759.8192393733333,65.44926663239795L760.5315768666667,49.599506126509766L761.24391436,22.57718874348535L761.72808125,33.959224820137024L762.6685893466666,21.026318603091745L763.3809268399999,80.78019784556494L764.0932643333333,44.67100236150952L764.8056018266667,32.63606031735737L765.2062916666666,143.15568804740903" style="fill: none;" fill="none"></path></g></g></g></g></g></g><g transform="translate(51, 377)" clip-path="url(#clip_1)"><clipPath id="clip_1"><rect width="834" height="23"></rect></clipPath><g><g><line x1="0" y1="0" x2="0" y2="5" style="visibility: inherit;" fill="rgb(0, 0, 0)" stroke="rgb(204, 204, 204)" stroke-width="1px"></line><line x1="69.56420833333333" y1="0" x2="69.56420833333333" y2="5" style="visibility: inherit;" fill="rgb(0, 0, 0)" stroke="rgb(204, 204, 204)" stroke-width="1px"></line><line x1="139.12841666666665" y1="0" x2="139.12841666666665" y2="5" style="visibility: inherit;" fill="rgb(0, 0, 0)" stroke="rgb(204, 204, 204)" stroke-width="1px"></line><line x1="208.692625" y1="0" x2="208.692625" y2="5" style="visibility: inherit;" fill="rgb(0, 0, 0)" stroke="rgb(204, 204, 204)" stroke-width="1px"></line><line x1="278.2568333333333" y1="0" x2="278.2568333333333" y2="5" style="visibility: inherit;" fill="rgb(0, 0, 0)" stroke="rgb(204, 204, 204)" stroke-width="1px"></line><line x1="347.82104166666664" y1="0" x2="347.82104166666664" y2="5" style="visibility: inherit;" fill="rgb(0, 0, 0)" stroke="rgb(204, 204, 204)" stroke-width="1px"></line><line x1="417.38525" y1="0" x2="417.38525" y2="5" style="visibility: inherit;" fill="rgb(0, 0, 0)" stroke="rgb(204, 204, 204)" stroke-width="1px"></line><line x1="486.9494583333333" y1="0" x2="486.9494583333333" y2="5" style="visibility: inherit;" fill="rgb(0, 0, 0)" stroke="rgb(204, 204, 204)" stroke-width="1px"></line><line x1="556.5136666666666" y1="0" x2="556.5136666666666" y2="5" style="visibility: inherit;" fill="rgb(0, 0, 0)" stroke="rgb(204, 204, 204)" stroke-width="1px"></line><line x1="626.077875" y1="0" x2="626.077875" y2="5" style="visibility: inherit;" fill="rgb(0, 0, 0)" stroke="rgb(204, 204, 204)" stroke-width="1px"></line><line x1="695.6420833333333" y1="0" x2="695.6420833333333" y2="5" style="visibility: inherit;" fill="rgb(0, 0, 0)" stroke="rgb(204, 204, 204)" stroke-width="1px"></line><line x1="765.2062916666666" y1="0" x2="765.2062916666666" y2="5" style="visibility: inherit;" fill="rgb(0, 0, 0)" stroke="rgb(204, 204, 204)" stroke-width="1px"></line><line x1="834.7705" y1="0" x2="834.7705" y2="5" style="visibility: inherit;" fill="rgb(0, 0, 0)" stroke="rgb(204, 204, 204)" stroke-width="1px"></line></g><g transform="translate(0, 8)"><text x="0" y="0" dx="0em" dy="0.95em" style="text-anchor: middle; visibility: hidden; font-family: Roboto, sans-serif; font-size: 12px; font-weight: 200;" fill="rgb(33, 33, 33)" stroke="none" stroke-width="1px">-200k</text><text x="69.56420833333333" y="0" dx="0em" dy="0.95em" style="text-anchor: middle; visibility: inherit; font-family: Roboto, sans-serif; font-size: 12px; font-weight: 200;" fill="rgb(33, 33, 33)" stroke="none" stroke-width="1px">0</text><text x="139.12841666666665" y="0" dx="0em" dy="0.95em" style="text-anchor: middle; visibility: inherit; font-family: Roboto, sans-serif; font-size: 12px; font-weight: 200;" fill="rgb(33, 33, 33)" stroke="none" stroke-width="1px">200k</text><text x="208.692625" y="0" dx="0em" dy="0.95em" style="text-anchor: middle; visibility: inherit; font-family: Roboto, sans-serif; font-size: 12px; font-weight: 200;" fill="rgb(33, 33, 33)" stroke="none" stroke-width="1px">400k</text><text x="278.2568333333333" y="0" dx="0em" dy="0.95em" style="text-anchor: middle; visibility: inherit; font-family: Roboto, sans-serif; font-size: 12px; font-weight: 200;" fill="rgb(33, 33, 33)" stroke="none" stroke-width="1px">600k</text><text x="347.82104166666664" y="0" dx="0em" dy="0.95em" style="text-anchor: middle; visibility: inherit; font-family: Roboto, sans-serif; font-size: 12px; font-weight: 200;" fill="rgb(33, 33, 33)" stroke="none" stroke-width="1px">800k</text><text x="417.38525" y="0" dx="0em" dy="0.95em" style="text-anchor: middle; visibility: inherit; font-family: Roboto, sans-serif; font-size: 12px; font-weight: 200;" fill="rgb(33, 33, 33)" stroke="none" stroke-width="1px">1M</text><text x="486.9494583333333" y="0" dx="0em" dy="0.95em" style="text-anchor: middle; visibility: inherit; font-family: Roboto, sans-serif; font-size: 12px; font-weight: 200;" fill="rgb(33, 33, 33)" stroke="none" stroke-width="1px">1.2M</text><text x="556.5136666666666" y="0" dx="0em" dy="0.95em" style="text-anchor: middle; visibility: inherit; font-family: Roboto, sans-serif; font-size: 12px; font-weight: 200;" fill="rgb(33, 33, 33)" stroke="none" stroke-width="1px">1.4M</text><text x="626.077875" y="0" dx="0em" dy="0.95em" style="text-anchor: middle; visibility: inherit; font-family: Roboto, sans-serif; font-size: 12px; font-weight: 200;" fill="rgb(33, 33, 33)" stroke="none" stroke-width="1px">1.6M</text><text x="695.6420833333333" y="0" dx="0em" dy="0.95em" style="text-anchor: middle; visibility: inherit; font-family: Roboto, sans-serif; font-size: 12px; font-weight: 200;" fill="rgb(33, 33, 33)" stroke="none" stroke-width="1px">1.8M</text><text x="765.2062916666666" y="0" dx="0em" dy="0.95em" style="text-anchor: middle; visibility: inherit; font-family: Roboto, sans-serif; font-size: 12px; font-weight: 200;" fill="rgb(33, 33, 33)" stroke="none" stroke-width="1px">2M</text><text x="834.7705" y="0" dx="0em" dy="0.95em" style="text-anchor: middle; visibility: hidden; font-family: Roboto, sans-serif; font-size: 12px; font-weight: 200;" fill="rgb(33, 33, 33)" stroke="none" stroke-width="1px">2.2M</text></g><line x1="0" y1="0" x2="834.7705" y2="0" fill="rgb(0, 0, 0)" stroke="rgb(204, 204, 204)" stroke-width="1px"></line></g></g></g></g></svg>